<svg width="25" height="32" viewBox="0 0 25 32" fill="none" xmlns="http://www.w3.org/2000/svg">
<path d="M18.3754 11.2267C17.7209 11.175 17.0179 11.3329 15.9412 11.7481C16.0326 11.7131 14.9144 12.1535 14.6017 12.2653C13.907 12.5099 13.3354 12.6441 12.6947 12.6441C12.0609 12.6441 11.4769 12.5155 10.8043 12.2877C10.5898 12.2136 10.374 12.1339 10.1055 12.0277C9.99201 11.9829 9.57685 11.8152 9.48552 11.7802C8.58877 11.4252 8.08366 11.291 7.66435 11.3022C6.07014 11.3231 4.56035 12.2527 3.68436 13.7931C1.89641 16.9299 2.88588 22.5981 5.49999 26.417C6.89216 28.4355 7.65328 29.1568 7.9605 29.147C8.26772 29.133 8.49329 29.0673 9.04406 28.8325L9.27517 28.7332C10.666 28.1335 11.6416 27.8693 13.1099 27.8693C14.5228 27.8693 15.4666 28.1293 16.802 28.7108L17.0345 28.8115C17.5853 29.0491 17.7845 29.1022 18.1305 29.0939C18.6259 29.0869 19.2362 28.511 20.591 26.5023C20.9619 25.9557 21.2899 25.3798 21.5736 24.7969C21.3871 24.6418 21.2062 24.48 21.0311 24.3119C19.2473 22.5953 18.1443 20.2805 18.1139 17.4205C18.0841 15.3044 18.7727 13.2418 20.0651 11.5762C19.5227 11.3739 18.953 11.256 18.3754 11.2267ZM18.5899 8.43941C19.5697 8.5065 22.3762 8.80844 24.2029 11.5091C24.0534 11.5929 20.8484 13.4716 20.8816 17.3967C20.9314 22.0935 24.9502 23.6535 25 23.6702C24.9668 23.7877 24.3524 25.9012 22.8744 28.0818C21.5957 29.9773 20.2672 31.856 18.1748 31.8895C16.1156 31.9398 15.4513 30.665 13.1099 30.665C10.7517 30.665 10.0211 31.856 8.07813 31.9398C6.05215 32.0069 4.52437 29.8934 3.22907 28.0147C0.588664 24.1567 -1.4207 17.1451 1.28613 12.3981C2.63125 10.0329 5.02256 8.54005 7.62976 8.5065C9.60591 8.45618 11.4824 9.84843 12.6947 9.84843C13.8903 9.84843 16.0326 8.23812 18.5899 8.43941ZM17.0123 5.88975C15.9329 7.19813 14.1727 8.22134 12.4622 8.08715C12.2297 6.3091 13.0932 4.44718 14.0896 3.28977C15.2023 1.9814 17.0622 1.0085 18.6066 0.941406C18.8058 2.753 18.0918 4.58138 17.0123 5.88975Z" fill="#1C1C27"/>
</svg>
