<svg width="20" height="20" viewBox="0 0 20 20" fill="none" xmlns="http://www.w3.org/2000/svg">
<g clip-path="url(#clip0_430_220)">
<path d="M1.6665 10.0001C1.6665 14.6026 5.39734 18.3334 9.99984 18.3334C14.6023 18.3334 18.3332 14.6026 18.3332 10.0001C18.3332 5.39758 14.6023 1.66675 9.99984 1.66675C5.39734 1.66675 1.6665 5.39758 1.6665 10.0001Z" stroke="#838383" stroke-width="1.5" stroke-linecap="round" stroke-linejoin="round"/>
<path d="M10.833 1.7085C10.833 1.7085 13.333 5.00016 13.333 10.0002C13.333 15.0002 10.833 18.2918 10.833 18.2918" stroke="#838383" stroke-width="1.5" stroke-linecap="round" stroke-linejoin="round"/>
<path d="M9.1665 18.2918C9.1665 18.2918 6.6665 15.0002 6.6665 10.0002C6.6665 5.00016 9.1665 1.7085 9.1665 1.7085" stroke="#838383" stroke-width="1.5" stroke-linecap="round" stroke-linejoin="round"/>
<path d="M2.19141 12.9167H17.8081" stroke="#838383" stroke-width="1.5" stroke-linecap="round" stroke-linejoin="round"/>
<path d="M2.19141 7.0835H17.8081" stroke="#838383" stroke-width="1.5" stroke-linecap="round" stroke-linejoin="round"/>
</g>
<defs>
<clipPath id="clip0_430_220">
<rect width="20" height="20" fill="white"/>
</clipPath>
</defs>
</svg>
